<svg id="Layer_1" data-name="Layer 1" xmlns="http://www.w3.org/2000/svg" viewBox="0 0 515.4 515.4"><defs><style>.cls-1{fill:#fff;}</style></defs><title>Artboard 1 copy 2</title><path class="cls-1" d="M257.66,251a88.9,88.9,0,1,1,88.93-88.93A89,89,0,0,1,257.66,251Zm0-169.41a80.55,80.55,0,1,0,80.55,80.55A80.65,80.65,0,0,0,257.66,81.62Z"/><path class="cls-1" d="M253.5,442.16A182.22,182.22,0,0,1,105,365.38l-1.61-2.24,1.38-2.34a180.3,180.3,0,0,1,154.4-88h5.56a179.74,179.74,0,0,1,145.63,74.71l1.59,2.22-1.38,2.35A182.59,182.59,0,0,1,253.5,442.16Zm5.63-160.92a171.82,171.82,0,0,0-144.44,79.51l-1.32,2.07,1.48,1.95a173.9,173.9,0,0,0,285.81-12.45l1.3-2.07-1.49-1.95a172.07,172.07,0,0,0-135.78-67.06Z"/></svg>